<svg width="359" height="425" viewBox="0 0 359 425" fill="none" xmlns="http://www.w3.org/2000/svg">
<path d="M170.05 388.549L154.69 361.292L26.0984 123.687L48.6236 95.8634C50.5698 93.4592 50.369 89.9691 48.1604 87.8036L26.7467 66.8097L85.7738 6.42132L170.05 388.549Z" fill="#D7B46A" stroke="#D7B46A" stroke-width="6"/>
<path d="M189.083 388.712L204.388 361.424L332.506 123.563L309.925 95.7843C307.974 93.3841 308.168 89.8936 310.372 87.7236L331.744 66.6871L272.597 6.41654L189.083 388.712Z" fill="#D7B46A" stroke="#D7B46A" stroke-width="6"/>
<rect x="166.5" y="42.5" width="24" height="31" rx="4.5" fill="#D7B46A" stroke="#D7B46A"/>
<path d="M128.961 27.3105C125.927 26.4003 122.753 28.2348 122.027 31.3184L119.494 42.084L118.5 50.0312V62.9766L119.495 73.9219L121.357 82.3057C121.437 82.663 121.553 83.0112 121.701 83.3457L123.123 86.5449C124.32 89.2364 127.424 90.5072 130.164 89.4277L141.3 85.041L154.776 79.0518L164.188 73.7822C165.924 72.8096 167 70.9741 167 68.9834V47.1514C167 45.0953 165.853 43.2112 164.026 42.2666L152.789 36.4531L137.822 29.9678L128.961 27.3105Z" fill="#D7B46A" stroke="#D7B46A"/>
<path d="M228.539 27.3105C231.573 26.4003 234.747 28.2348 235.473 31.3184L238.006 42.084L239 50.0312V62.9766L238.005 73.9219L236.143 82.3057C236.063 82.663 235.947 83.0112 235.799 83.3457L234.377 86.5449C233.18 89.2364 230.076 90.5072 227.336 89.4277L216.2 85.041L202.724 79.0518L193.312 73.7822C191.576 72.8096 190.5 70.9741 190.5 68.9834V47.1514C190.5 45.0953 191.647 43.2112 193.474 42.2666L204.711 36.4531L219.678 29.9678L228.539 27.3105Z" fill="#D7B46A" stroke="#D7B46A"/>
<circle cx="178" cy="121" r="10" fill="#D7B46A"/>
<circle cx="178" cy="173" r="10" fill="#D7B46A"/>
<circle cx="178" cy="225" r="10" fill="#D7B46A"/>
</svg>
