<svg width="359" height="425" viewBox="0 0 359 425" fill="none" xmlns="http://www.w3.org/2000/svg">
<path d="M170.05 388.549L154.69 361.292L26.0984 123.687L48.6236 95.8634C50.5698 93.4592 50.369 89.9691 48.1604 87.8036L26.7467 66.8097L85.7738 6.42132L170.05 388.549Z" fill="#D7B46A" stroke="#D7B46A" stroke-width="6"/>
<path d="M189.083 388.712L204.388 361.424L332.506 123.563L309.925 95.7843C307.974 93.3841 308.168 89.8936 310.372 87.7236L331.744 66.6871L272.597 6.41654L189.083 388.712Z" fill="#D7B46A" stroke="#D7B46A" stroke-width="6"/>
<path d="M167.298 91.9999H191.719L208 245.596L179 282L150 245.596L167.298 91.9999Z" fill="#D7B46A"/>
<path d="M164.5 48.5H194L203 63L192.5 86H166.5L156 63L164.5 48.5Z" fill="#D7B46A"/>
<path d="M96 8L163.5 41.5L137 79L102.5 45.5L96 8Z" fill="#D7B46A"/>
<path d="M262.5 8L195 41.5L221.5 79L256 45.5L262.5 8Z" fill="#D7B46A"/>
</svg>
